<svg xmlns="http://www.w3.org/2000/svg" viewBox="0 0 1280 800"><path d="M640.8 303l-.8-.1-76.7 8v140.6l76.7 45.6 76.7-45.6V310.9l-75.9-7.9zm65.9 142.8L640 485.4l-66.7-39.7v-57.6l66.4 39.5.1 7.2-45.5-27.1-.1 7 45.7 27.5.1 7.4-45.7-27.2-.1 7 45.8 27.3 46.2-27.6v-7h-.1v-22.8l20.6-12.3v58.8zm-.1-66.1l-18.2 10.7-8.4 5-40.1-23.9-.1 7 34.3 20.4-.3.2-.7.4-4.9 2.9-28.3-16.9-.1 7 22.4 13.3-5.3 3.5-.1.1-16.9-10-.1 7 11.1 6.5-11.3 6.8-66-39.3 66.1-39.8v0l66.9 39.1zm.1-7l-67-39.5v0h0v0l-66.3 39.5V320l66.7-7 66.7 7v52.7z" fill="#63d1bb" stroke="#63d1bb"/></svg>