<svg xmlns="http://www.w3.org/2000/svg" viewBox="0 0 34.4 34.4"><path d="M.3 14.1c-.4 2.1-.4 4.2 0 6.3l4.1-3.2-4.1-3.1zM24.4 1.6C19.6-.6 14-.6 9.1 2l7.5 5.6 7.8-6zm9.5 11.6l-4.8 3.7 4.9 3.7c.5-2.4.5-5-.1-7.4zM9.2 32.4c4.8 2.5 10.7 2.7 15.7.1l-8.1-6.1-7.6 6zm-1.3-18L1.7 9.8c-.3.7-.6 1.4-.8 2.1l5.3 4 1.7-1.5zm10.7 10.7l8.3 6.2c.3-.2.6-.4.8-.6.3-.2.6-.5.9-.8l-8.3-6.2-1.7 1.4zm-7.2-13.4L4 6.2c-.5.5-.9 1.1-1.3 1.7l6.9 5.2 1.8-1.4zm10.7 10.7l8.1 6.1c.5-.5.9-1.1 1.3-1.7l-7.6-5.7-1.8 1.3zM14.9 9L7.2 3.2c-.2.1-.4.3-.6.4-.4.3-.8.7-1.1 1l7.7 5.7L14.9 9zm10.7 10.6l7 5.2c.3-.7.6-1.3.9-2l-6.1-4.5-1.8 1.3zm.8-16.9L.9 22.6c.2.7.5 1.4.8 2.1L28.2 4c-.5-.5-1.1-.9-1.8-1.3zm4.3 3.9c-.3-.4-.6-.8-.9-1.1l-27 21.1c.3.4.5.8.8 1.2.1.2.3.4.4.5L31.2 7.2c-.2-.2-.3-.4-.5-.6zM32.3 9L5.6 29.8c.5.5 1.1 1 1.7 1.4l26-20.2c-.3-.7-.6-1.4-1-2z" fill="#63d1bb"/></svg>