<svg xmlns="http://www.w3.org/2000/svg" viewBox="8 4.4 32 37.3"><path d="M24 41.7c8.8 0 16-7.2 16-16-8.8 0-16 7.1-16 16zM12.6 20.8c0 2.5 2 4.4 4.4 4.4.9 0 1.8-.3 2.5-.8v.3c0 2.5 2 4.4 4.4 4.4 2.5 0 4.4-2 4.4-4.4v-.3a4.376 4.376 0 006.9-3.6c0-1.8-1-3.3-2.5-4 1.5-.7 2.5-2.2 2.5-4 0-2.5-2-4.4-4.4-4.4-.9 0-1.8.3-2.5.8l.1-.4c0-2.5-2-4.4-4.4-4.4-2.5 0-4.4 2-4.4 4.4v.3a4.376 4.376 0 00-6.9 3.6c0 1.8 1 3.3 2.5 4-1.5.8-2.6 2.3-2.6 4.1zM24 12.3c2.5 0 4.4 2 4.4 4.4 0 2.5-2 4.4-4.4 4.4-2.5 0-4.4-2-4.4-4.4 0-2.4 1.9-4.4 4.4-4.4zM8 25.7c0 8.8 7.2 16 16 16 0-8.9-7.2-16-16-16z" fill="#63d1bb"/></svg>