<svg viewBox="0 0 24.8 24.3" xmlns="http://www.w3.org/2000/svg"><path d="M17.3 24.3h-1.1c-4.9-.6-8.5-2.9-11.1-5.8S.4 11.9 0 6.8V5.4c.1-.9.5-1.5 1.1-2.1.6-.7 1.6-1.5 2.5-1.6.7 0 1.8.5 2.2 1.1.4.5.6 1.6.8 2.4.2.9.6 2 .5 2.8-.2 1.2-1.8 1.7-2.2 2.6 1.6 3.7 4.1 6.5 7.5 8.3.8-.5 1.6-1.9 2.8-1.9.4 0 1 .2 1.4.3.5.1.9.3 1.3.5.7.3 2 .6 2.4 1.2s.7 1.6.6 2.2c-.3 1.3-2.4 2.7-3.6 3.1zM12.5 1.5c5.9 0 10.8 4.8 10.8 10.8h1.5C24.8 5.5 19.3 0 12.5 0v1.5z" fill="#62d1ba"/><path d="M12.5 9.3v1.6c.8 0 1.4.6 1.4 1.4h1.6c0-1.6-1.3-3-3-3zm0-3.1c3.3 0 6.1 2.7 6.1 6.1h1.6c0-4.2-3.4-7.6-7.6-7.6v1.5z" fill="#62d1ba"/></svg>