<svg xmlns="http://www.w3.org/2000/svg" viewBox="-259.4 -19.7 40.2 62.4"><path d="M-244.2 18.3c-.3 1-.2 2.2 0 3.6.5 2.6 1.7 6 2.4 9.7h5.1c.7-3.6 1.9-7 2.5-9.7.3-1.4.3-2.7 0-3.6-.3-.9-.9-1.6-2-2.3h-6c-1.2.7-1.8 1.4-2 2.3zm11.8 20h-13.8c-1.3 0-2.3 1-2.3 2.2v2.2h18.4v-2.2c0-1.2-1-2.2-2.3-2.2zm7.1-55.7H-237c0-1.2-1-2.2-2.3-2.2-1.3 0-2.3 1-2.3 2.2h-11.7l-6.1 25.5c.8-.5 1.6-1 2.6-1 1.4 0 2.2.8 2.9 1.4.7.6 1.2.8 1.4.8.3 0 .8-.3 1.5-.8s1.6-1.4 2.9-1.4c1.3 0 2.2.8 2.9 1.4.7.5 1.2.8 1.5.8.1 0 .3-.1.6-.2.2-.1.5-.4.9-.6.5-.4 1.1-1 2-1.2.3-.1.6-.1.9-.1 1.3 0 2.2.8 2.9 1.4.7.5 1.2.8 1.5.8.3 0 .8-.3 1.4-.8.7-.6 1.6-1.4 2.9-1.4 1.4 0 2.2.8 2.9 1.4.3.3.6.5.9.6.2.1.4.2.6.2.3 0 .8-.3 1.4-.9.7-.6 1.6-1.4 2.9-1.4 1 0 1.8.5 2.6 1l-6-25.5zm-10.6 51.2h-6.9c-.7 0-1.1.5-1.1 1.1 0 .6.5 1.1 1.2 1.1h6.9c.7 0 1.2-.5 1.2-1.1 0-.6-.5-1.1-1.1-1.1h-.2z" fill="#3bb09d"/><path d="M-239.3 9.3c-.1 0-.3.1-.6.2-.2.1-.4.3-.6.4v3.7h2.3V10c-.5-.4-.9-.7-1.1-.7z" fill="#3bb09d"/></svg>