<svg xmlns="http://www.w3.org/2000/svg" viewBox="0 0 148.051 72.707"><path d="M143.165 31.397c-1.481 1.055-3.054 1.942-4.657 2.777.037-1.747-.119-3.465-.591-5.127.051-.333.103-.667.146-1.002.375-3.005.656-7.122-2.004-9.224-.334-.265-1.248-.035-1.922.274a4.424 4.424 0 00-.496-.414 16.08 16.08 0 01-.229-.735c-.035-.12-.168-.188-.36-.215.285-.383.263-.818-.419-1.092a18.59 18.59 0 00-1.143-.413c-.067-.072-.127-.096-.172-.058l-.006.003c-.939-.3-1.894-.533-2.859-.705.138-.331.396-.813.552-1a4.939 4.939 0 01.618-.604l.069-.061.084-.062c.379-.288.846-.865.221-1.202-.57-.307-1.508-.142-2.008.238-.862.655-1.625 1.379-2.092 2.361-2.01-.169-4.049-.155-6.078-.078a.794.794 0 00.141-.25c.184-.585-.908-.525-1.188-.488a938.62 938.62 0 01-4.688.604c1.367-3.773 3.083-8.578 1.001-12.264-1.189-2.106-3.906-2.579-6.098-2.652-2.437-.081-4.898.461-7.036 1.636-4.763 2.618-7.11 7.71-8.21 13.138-.497-.657-2.301-.425-2.645.468-.125.32-.229.645-.328.972-.16.174-.281.386-.345.637-.015.056-.026.111-.041.167l-.196.007c.021-.104.041-.207.064-.31.146-.109.247-.232.279-.366.574-2.296 1.156-4.588 1.949-6.82.269-.756-2.512-.399-2.805.426a51.161 51.161 0 00-1.119 3.622c-.166.078-.357.187-.426.326-.018.034-.031.07-.047.104-.107-.093-.271-.151-.467-.178v-.959c0-.432-2.822-.034-2.822.757v1.568a2.363 2.363 0 00-.473.266c-.063.057-.127.114-.189.172a.377.377 0 00-.12.245c-.007.026-.013.053-.022.078-.018.022-.032.046-.053.066-.125.128-.184.335-.026.467.19.16.508.167.737.159l.146-.011v.468c-.227-.001-.45-.003-.675-.006l-.411-.051c-.021-.385-.676-.452-1.352-.328a.524.524 0 000-.148 23.104 23.104 0 01-.229-1.79c.237-.079.472-.18.681-.313.158-.102.327-.224.327-.43v-.194c0-.18-.411-.204-.499-.208a2.844 2.844 0 00-.589.041c-.075-1.305-.081-2.615-.081-3.925 0-.84-2.824-.315-2.822.757 0 1.786.008 3.57.192 5.343a2.495 2.495 0 00-.271.009v-1.532c0-1.045-1.297-1.22-2.146-.809.313-.262.488-.622.37-1.039-.403-1.414-.778-2.827-.974-4.287-.188-1.394-3.018-.677-2.825.756.196 1.46.57 2.873.975 4.287.235.828 1.338.889 2.104.51-.227.196-.373.452-.373.76v.63c-.188-.098-.438-.16-.77-.16-1.057 0-1.671.885-1.4 1.477a41.915 41.915 0 01-.491-.083c-.382-1.248-.686-2.514-.714-3.83-.02-.942-1.27-1.049-2.108-.672a.571.571 0 00-.049-.168c-.385-.804-.567-1.674-.78-2.533-.332-1.35-3.158-.601-2.823.756.157.638.3 1.281.519 1.898l-.056.014c-.3.081-.601.205-.854.387-.832.079-1.828.565-1.752 1.208.058.478.131.953.209 1.427-.546.091-1.092.177-1.639.26a11.905 11.905 0 01-.618-2.443c-.131-.924-1.555-.854-2.332-.26-.774-2.062-1.796-4.019-3.122-5.761-2.621-3.439-7.097-4.613-11.242-3.794-1.9.376-3.735 1.184-5.043 2.646-1.21 1.353-1.352 3.089-1.17 4.805.158 1.493.61 4.005 1.584 5.976-.35-.012-.709.041-.949.139-.283.117-.561.248-.833.388a95.043 95.043 0 01-5.803-.07c-4.179-.194-8.301-.86-12.497-.742-.923.026-1.534.719-1.465 1.262-1.046.502-1.733 1.315-2.143 2.287-1.732-1.15-3.479-2.266-5.335-3.211-.689-.351-3.3.707-2.285 1.224 1.84.938 3.561 2.072 5.278 3.216.512.341 1.32.133 1.842-.07.03-.012.09-.039.165-.077-.306 1.44-.157 3.067.241 4.493.03.11.093.198.172.27a9.289 9.289 0 00-.007 1.015l-.002.165c-.4.189-.712.48-.76.839a37.38 37.38 0 00-.305 4.229c-.272.199-.462.469-.485.798-.233 3.345.037 6.651.467 9.95.185 2.693.69 5.344 1.172 7.998.058.416.113.832.167 1.25-.265 1.133-.399 2.395-.237 3.481-.881.171-1.729.866-1.233 1.617.765 1.158 1.644 2.018 2.606 2.649-.633-.103-1.42.109-1.871.555-.818.809-1.715 1.531-2.533 2.339-.429.424-.314.935.289 1.078.651.155 1.516-.06 1.997-.535.817-.808 1.715-1.531 2.533-2.339.248-.245.308-.518.204-.73 3.21 1.734 7.235 1.27 11.114.942-.882 1.589-1.542 3.272-2.17 4.997-.262.719 2.507.373 2.801-.436.61-1.676 1.237-3.344 2.103-4.895 3.741.117 7.479.122 11.215.051.149.183.416.306.746.336 3.27.311 6.489-.096 9.688-.698 4.789-.229 9.577-.525 14.366-.809 7.527-.187 15.056-.347 22.587-.319.1.108.204.215.314.317.271.256.621.345.979.33.063.009.129.016.199.019.714.036 1.428.088 2.141.146.156.04.342.059.56.046h.005c.781.066 1.563.141 2.346.208.172.214.497.342.792.36 3.804.25 7.612.522 11.423.703.141.23.537.34.82.344 7.066.06 15.277 2.804 21.559-1.736.5-.361.272-.877-.265-.984a1.885 1.885 0 00-.325-.033c.008-.017.018-.03.022-.045a60.728 60.728 0 002.944-8.553c.365-.197.633-.494.646-.859.049-1.189.188-2.406.371-3.639.166-.885.313-1.771.441-2.66.387-2.17.806-4.367 1.018-6.541 2.279-1.147 4.538-2.335 6.622-3.819 1.567-1.12-.782-1.886-1.83-1.14zm-55.33-15.046a1.13 1.13 0 00-.134.123c.072-.312.148-.623.229-.934h.11c-.067.27-.138.541-.205.811z"/><path d="M63.261 12.626c.127.196.562.217.753.217.377.001.759-.083 1.106-.225.404-.166 1.101-.559.77-1.07-.363-.562-.609-1.19-.975-1.754-.127-.196-.562-.217-.754-.217a2.914 2.914 0 00-1.105.226c-.404.165-1.101.558-.77 1.069.363.562.61 1.191.975 1.754zm-42.578-1.719c.216.647 1.111.647 1.648.504.472-.127 1.39-.616 1.175-1.26-.208-.624-.433-1.293-.893-1.78-.479-.507-1.324-.417-1.902-.151-.412.19-1.177.838-.695 1.349.382.405.478.772.667 1.338zm9.977 2.988c.843 0 3.073-1.276 1.186-1.276-.843 0-3.074 1.276-1.186 1.276zm91.902-1.621c.346.072.717.032 1.055-.059.32-.086.699-.234.941-.477.354-.355.728-.729.961-1.178.104-.198.174-.399-.004-.587-.188-.197-.508-.245-.764-.251a2.687 2.687 0 00-1.105.22c-.252.106-.621.294-.756.553a3.08 3.08 0 01-.351.513l-.024.027a.307.307 0 00-.027.032c-.064.067-.131.133-.195.199-.158.158-.346.365-.279.614.063.241.334.349.548.394zm13.299 5.418c.631-.061 1.395-.246 1.894-.662 1.319-1.103 2.603-2.248 3.623-3.642.288-.393-1.049-.243-1.118-.23-.533.099-1.316.276-1.66.746-.949 1.296-2.164 2.349-3.392 3.374-.498.415.44.434.653.414zM146.74 44.77h-4.872c-.616 0-1.476.467-1.556 1.139-.09.738.754.922 1.304.922h4.87c.617 0 1.476-.469 1.558-1.139.09-.74-.754-.922-1.304-.922zM57.021 60.784c-.498.08-1.412.296-1.639.831a34.565 34.565 0 00-1.364 3.896c-.211.733 2.571.333 2.798-.451a34.56 34.56 0 011.363-3.896c.222-.527-.966-.412-1.158-.38zm4.581 2.591a3.852 3.852 0 00-1.029.152 3.855 3.855 0 00-.968.383c-.141.084-.338.199-.338.39a3.107 3.107 0 01-.021.347.751.751 0 01-.113.271c-.064.082-.108.18.018.253.196.114.502.083.712.061a4.713 4.713 0 001.099-.252c.243-.084.613-.207.795-.406.149-.164.241-.286.284-.501.035-.177.05-.349.05-.529-.001-.166-.422-.168-.489-.169zm55.05 3.676c-.355-.686-3.043.331-2.823.758.844 1.637 1.939 3.121 2.923 4.676.436.689 3.04-.414 2.823-.756-.982-1.555-2.079-3.04-2.923-4.678zm4.092-2.338c-.294-.588-1.066-.563-1.624-.414-.351.094-1.485.598-1.199 1.17l1.169 2.34c.294.588 1.068.562 1.624.414.351-.095 1.486-.599 1.199-1.172l-1.169-2.338zM5.668 43.106c-1.486.358-3.006.57-4.481.975-.537.146-1.342.641-1.16 1.318.181.675 1.128.709 1.664.562 1.476-.403 2.995-.615 4.482-.976.541-.129 1.338-.65 1.16-1.317-.185-.686-1.124-.693-1.665-.562z"/><path d="M43.752 40.106c-.083-2.707-.514-5.396-.479-8.107.028-2.194.393-4.45-.363-6.554.047-.239.097-.477.141-.717.195-1.055-3.3-.497-3.849.468-.346.283-.523.621-.377.965.037.087.069.175.102.263-.662 3.233-1.584 6.364-2.645 9.498-.406 1.199-.896 2.37-1.31 3.565-.587-1.114-1.181-2.215-1.658-3.408-1.386-3.464-2.636-6.965-4.326-10.299.192-1.543-3.232-1.381-3.907.032-.816 1.709-.711 3.434-.442 5.262.303 2.061.356 4.086.381 6.167.048 4.012.361 8.016.421 12.027-.357.396-.466.889-.092 1.388.163.217.365.385.576.554.913.73 3.533.107 3.528-1.283-.014-4.16-.314-8.312-.424-12.471a99.221 99.221 0 01-.024-1.222l.173.438c.646 1.618 1.322 3.19 2.205 4.696.876 1.49 1.316 3.092 1.819 4.719-.19.219-.305.467-.234.715-.04.182.071.294.253.363.645.552 1.858.277 2.532-.007.29-.122.566-.263.834-.427.348-.215.891-.687.735-1.17l-.088-.281c.475-1.281.716-2.612.975-3.965.275-1.441.789-2.806 1.307-4.172.053.625.107 1.25.157 1.873.206 2.576.033 5.117.008 7.695-.009.854.054 1.648.221 2.484.068.345.37 1.824.283 1.904-.617.569-.438 1.268.389 1.449.923.203 2.1-.105 2.795-.749 1.209-1.116.638-2.87.364-4.28-.46-2.361.093-5.007.019-7.413zm8.44.682c-.074-2.007-.771-3.898-.781-5.925-.011-2.327.183-4.635-.156-6.949-.107-.732-4.093.101-3.953 1.059.312 2.129.199 4.268.161 6.412-.037 2.063.472 3.934.737 5.958.271 2.073-.085 4.195.15 6.271.11.971.758 2.768.09 3.612-.424.537 1.482.344 1.568.33.775-.144 1.809-.396 2.324-1.049.659-.835.198-2.447.054-3.387-.32-2.079-.115-4.235-.194-6.332zm16.479-3.35c-2.081-2.809-5.943-.787-8.64-1.554-1.39-.396-1.407-2.292-1.403-3.428.004-1.439-.115-2.757-.276-4.184-.119-1.061-.024-2.14.753-2.93.143-.146.866-.339.817-.342a8.098 8.098 0 011.077-.094c1.562-.067 4.654.234 4.056 2.506-.269 1.019 3.629.435 3.913-.643 1.224-4.64-7.352-3.749-9.774-3.106-2.231.592-4.692 1.862-4.819 4.438-.062 1.23.274 2.401.328 3.62.061 1.403-.2 2.802.291 4.155 1.092 3.01 5.57 1.59 7.849 1.761 3.88.29 2.722 5.52 2.772 7.955.027 1.301 1.192 3.461.213 4.549-.601.668-2 .707-2.817.774-.821.069-2.221.315-2.768-.465-1.002-1.431.093-3.834-.121-5.474-.122-.933-4.104-.097-3.953 1.059.346 2.65-1.412 6.199 2.424 6.654 2.464.293 5.238-.162 7.568-.936 1.207-.4 2.328-.951 3.272-1.811 1.045-.948.701-2.368.421-3.578-.682-2.942.739-6.332-1.183-8.926zm17.483-.19c-.121-3.812-.695-7.582-.711-11.4-.008-1.989-4-1.317-3.992.346.015 3.641.501 7.232.688 10.863l.012.223c-1.967-.019-3.934.179-5.904.248.203-4.675-.617-9.311-.438-13.983.021-.587-3.91-.091-3.954 1.059-.172 4.516.593 8.997.457 13.514-.064 2.154-.247 4.303-.262 6.46-.008 1.104.173 2.204.332 3.293.147 1.008.488 2.353.183 3.349-.238.779 3.594.293 3.897-.701.55-1.793-.224-4.076-.407-5.892-.178-1.74-.041-3.53.084-5.296 2.047-.131 4.096-.3 6.135-.012.09 1.391.197 2.779.324 4.172.106 1.168.182 2.334.198 3.507.017 1.028.144 2.518-.223 3.492-.78 2.075 3.179 1.905 3.757.368.71-1.888.507-4.237.386-6.221-.152-2.468-.482-4.92-.562-7.389zm17.088 4.514c-.948-2.783-2.395-5.224-3.649-7.868 1.011-1.967 2.036-3.935 2.959-5.942.839-1.824 1.46-3.854 3.107-5.139.579-.451.555-.904-.259-.96-.883-.061-2.082.194-2.795.749-1.498 1.168-2.447 2.587-3.229 4.307a163.19 163.19 0 01-3.166 6.578c-.494.318-.792.769-.644 1.277-.799 1.578-1.614 3.146-2.522 4.653-.302-5.584-.963-11.162-1.161-16.751-.045-1.281-4.007-.484-3.952 1.059.245 6.93 1.229 13.845 1.299 20.775l-.049.051c-.304.31-.192.498.053.606a61.878 61.878 0 01-.211 5.303c-.478.752.467 1.149 1.094 1.149h.098c.746 0 2.648-.354 2.742-1.377.193-2.118.254-4.233.234-6.349 1.604-1.732 2.916-3.663 4.093-5.687.766 1.494 1.495 3 2.007 4.625.868 2.766 2.32 5.308 3.159 8.087.55 1.821 4.497.745 3.952-1.06-.84-2.776-2.224-5.343-3.16-8.086zm23.718-4.677c-.212-.84-1.385-.857-2.292-.777-.014-.338-.021-.677-.036-1.016-.127-2.686-.168-5.428-.396-8.105-.211-2.479-1.6-3.368-4.008-3.276-2.438.093-5.277.532-7.551 1.416-2.632 1.023-4.096 2.961-4.601 5.733-.556 3.041.241 6.275.377 9.331.155 3.535.065 7.078.062 10.614 0 .579 3.952.031 3.953-1.06.004-2.801.043-5.602 0-8.401a53.08 53.08 0 00-.104-2.466c1.382-.6 3.721.013 5.097.143 1.117.105 2.189-.166 3.273-.294.021 2.333.108 4.679.205 7.009.049 1.193.48 3.563-.356 4.551-.44.522 1.493.348 1.567.334.802-.148 1.777-.404 2.324-1.051.959-1.129.461-3.824.405-5.172-.079-1.929-.102-3.859-.144-5.789 1.167-.153 2.443-.866 2.225-1.724zm-14.752-.151c-.104-1.258-.22-2.514-.306-3.777-.161-2.352.117-5.634 2.309-7.063.587-.383 1.691-.317 2.377-.442.98-.177 1.974-.393 2.855.192 1.222.81.92 3.691.918 4.913-.002 2.024.211 4.038.313 6.058a14.02 14.02 0 01-1.698.078c-2.306-.056-4.583-.419-6.768.041zM48.771 25.176a3.193 3.193 0 001.49-.529l.26-.219c.524-.338.979-.834.734-1.372-.509-1.115-.428-2.251-.42-3.445.007-.966-.972-1.257-1.797-1.185-.729.064-2.188.586-2.194 1.534-.007 1.002-.072 2.034.11 3.02-.049.113-.075.241-.105.358-.056.214.016.424.144.595l.002.135.015.338a.908.908 0 00.433.535c.39.235.884.278 1.328.235z" fill="#fff"/></svg>