<svg viewBox="0 0 66 100.8" xmlns="http://www.w3.org/2000/svg"><path d="M56.3 9.2C43.4-3.1 22.6-3.1 9.7 9.2s-12.9 32.2 0 44.5c0 0 23.3 21.8 23.3 47 0-25.2 23.3-47 23.3-47 12.9-12.2 12.9-32.2 0-44.5z" fill="#fff"/><path d="M47 45.5c-.6-3.3.1-6.9 0-10.3-.1-3.8-.7-7.5-.7-11.2 0-3 .5-6.2-.5-9.1.1-.3.1-.7.2-1 .3-1.5-4.6-.7-5.3.6-.5.4-.7.9-.5 1.3.1.1.1.2.1.4-.9 4.5-2.2 8.8-3.7 13.2-.6 1.7-1.2 3.3-1.8 4.9-.8-1.5-1.6-3.1-2.3-4.7-1.9-4.8-3.7-9.7-6-14.3.3-2.1-4.5-1.9-5.4 0-1.1 2.4-1 4.8-.6 7.3.4 2.9.5 5.7.5 8.6.1 5.6.5 11.1.6 16.7-.5.6-.6 1.2-.1 1.9.2.3.5.5.8.8 1.3 1 4.9.2 4.9-1.8 0-5.8-.4-11.5-.6-17.3v-1.7c.1.2.2.4.2.6.9 2.2 1.8 4.4 3.1 6.5 1.2 2.1 1.8 4.3 2.5 6.5-.3.3-.4.6-.3 1-.1.3.1.4.4.5.9.8 2.6.4 3.5 0l1.2-.6c.5-.3 1.2-1 1-1.6 0-.1-.1-.3-.1-.4.7-1.8 1-3.6 1.4-5.5.4-2 1.1-3.9 1.8-5.8.1.9.1 1.7.2 2.6.3 3.6 0 7.1 0 10.7 0 1.2.1 2.3.3 3.4.1.5.5 2.5.4 2.6-.9.8-.6 1.8.5 2 1.3.3 2.9-.1 3.9-1 1.6-1.4.8-3.8.4-5.8z" fill="#6bc6b3"/></svg>