<svg viewBox="0 0 595.3 841.9" xmlns="http://www.w3.org/2000/svg"><path d="M509.5 328.7s-4.2-31.9-17.2-45.8c-16.5-18.4-34.9-18.5-43.4-19.5-60.6-4.7-151.4-4.7-151.4-4.7h-.2s-90.8 0-151.4 4.7c-8.5 1-26.9 1.2-43.4 19.5-12.9 14.1-17.2 45.8-17.2 45.8s-4.1 37.3-4.1 74.6v35c0 37.3 4.3 74.6 4.3 74.6s4.2 31.9 17.2 45.8c16.5 18.4 38 17.8 47.7 19.8 34.6 3.5 147.1 4.7 147.1 4.7s90.9-.1 151.5-4.8c8.5-1 26.9-1.2 43.4-19.5 12.9-14 17.2-45.8 17.2-45.8s4.3-37.3 4.3-74.6v-35c-.1-37.4-4.4-74.8-4.4-74.8z" fill="#63d1bb" stroke="#63d1bb" stroke-width="25" stroke-miterlimit="10"/><path fill="#fff" d="M243.5 339.8v162.3l135.2-81.2z"/></svg>