<svg xmlns="http://www.w3.org/2000/svg" viewBox="226 226.2 60 59.6"><path d="M226 269.9l27.4 15.9v-23.3L226 246.6v23.3zm51.3-31.3v2.5c0 1.8-3.5 3.3-7.7 3.3-4.3 0-7.7-1.5-7.7-3.3V237c.3 1.7 3.6 3.1 7.7 3.1 4.3 0 7.7-1.5 7.7-3.3 0-1.8-3.5-3.3-7.7-3.3h-1l-5-2.9v3.1c0 1.8-3.5 3.3-7.7 3.3-2.7 0-5-.6-6.4-1.5-.2-.2-.4-.4-.7-.6-.4-.4-.6-.8-.6-1.2v-3l-4.8 2.8h-1.1c-4.3 0-7.7 1.5-7.7 3.3 0 1.8 3.5 3.3 7.7 3.3 4.1 0 7.4-1.4 7.7-3.1v4.1c0 1.8-3.5 3.3-7.7 3.3-4.3 0-7.7-1.5-7.7-3.3v-2.4l-6 3.5 27.5 16 27.4-15.9-6.2-3.7zm-13.6 10.2c0 1.8-3.5 3.3-7.7 3.3-4.3 0-7.7-1.5-7.7-3.3v-4.1c.3 1.7 3.6 3.1 7.7 3.1s7.4-1.4 7.7-3.1v4.1zm-5.1 13.9v23.1l27.4-15.9v-23.1l-27.4 15.9zm-2.7-29.9c4.3 0 7.7-1.5 7.7-3.3 0-1.8-3.5-3.3-7.7-3.3-4.3 0-7.7 1.5-7.7 3.3 0 1.8 3.4 3.3 7.7 3.3" fill="#35a999"/></svg>