<svg viewBox="0 0 1150 34" xmlns="http://www.w3.org/2000/svg"><path d="M1121.3 0c-14.375 0-14.375 14-28.749 14s-14.374-14-28.748-14-14.374 14-28.748 14c-14.375 0-14.375-14-28.75-14-14.374 0-14.374 14-28.748 14S963.183 0 948.809 0s-14.374 14-28.749 14-14.375-14-28.749-14-14.374 14-28.749 14-14.375-14-28.75-14c-14.371 0-14.371 14-28.743 14-14.375 0-14.375-14-28.75-14-14.372 0-14.372 14-28.744 14-14.374 0-14.374-14-28.747-14s-14.373 14-28.747 14c-14.373 0-14.373-14-28.746-14-14.374 0-14.374 14-28.748 14-14.375 0-14.375-14-28.751-14-14.374 0-14.374 14-28.748 14S560.714 0 546.34 0s-14.374 14-28.748 14-14.374-14-28.748-14c-14.375 0-14.375 14-28.75 14-14.376 0-14.376-14-28.753-14-14.375 0-14.375 14-28.75 14S388.216 0 373.84 0c-14.375 0-14.375 14-28.75 14-14.376 0-14.376-14-28.751-14s-14.375 14-28.751 14-14.376-14-28.753-14c-14.374 0-14.374 14-28.747 14-14.375 0-14.375-14-28.75-14s-14.375 14-28.751 14C158.21 14 158.21 0 143.833 0c-14.378 0-14.378 14-28.755 14C100.7 14 100.7 0 86.322 0S71.944 14 57.566 14C43.187 14 43.187 0 28.807 0S14.428 14 .048 14v20h1150V14c-14.374 0-14.374-14-28.748-14z" fill="#fff"/></svg>